<svg viewBox="-0.5 -0.5 16 16" fill="none" xmlns="http://www.w3.org/2000/svg" id="Twitter--Streamline-Unicons.svg" height="16" width="16"><desc>Twitter Streamline Icon: https://streamlinehq.com</desc><path d="M14.850000000000001 2.9503125000000003c-0.5525 0.2396875 -1.13675 0.398125 -1.7346249999999999 0.4704375 0.6308125 -0.3768125 1.1035 -0.969625 1.330375 -1.6684999999999999 -0.5926875 0.352875 -1.2415625 0.6015 -1.918375 0.735 -0.45237499999999997 -0.4905625 -1.0546875 -0.8170624999999999 -1.7126875 -0.9283750000000001 -0.657875 -0.11131250000000001 -1.33425 -0.001125 -1.92275 0.3133125 -0.5885625 0.3145 -1.056125 0.815375 -1.3293125 1.4241875000000002 -0.27318749999999997 0.6088125 -0.3365625 1.2910625 -0.18025 1.9398125 -1.1985 -0.060625 -2.37075 -0.37268750000000006 -3.4407500000000004 -0.9159375000000001 -1.07 -0.5431874999999999 -2.01375 -1.3054374999999998 -2.7700000000000005 -2.23725 -0.2651875 0.4631875 -0.4045625 0.98775 -0.40425 1.5215 -0.0009375 0.49562500000000004 0.12075000000000001 0.983875 0.354125 1.421125 0.233375 0.4373125 0.57125 0.810125 0.9836250000000001 1.08525 -0.47925 -0.013125000000000001 -0.94825 -0.14168750000000002 -1.367125 -0.374875v0.03675c0.0036249999999999998 0.6945 0.2469375 1.3664375 0.6889375 1.902125 0.4419375 0.53575 1.0554375 0.9023749999999999 1.7365625000000002 1.037875 -0.2621875 0.07974999999999999 -0.5344375 0.12187500000000001 -0.8085 0.12493749999999999 -0.1896875 -0.0021875 -0.3789375 -0.0194375 -0.5659375 -0.0514375 0.1939375 0.5974375 0.5693125 1.1195 1.073875 1.4936250000000002 0.5045625 0.3740625 1.1131875 0.581625 1.7411874999999999 0.59375 -1.0605 0.834375 -2.36975 1.2898125 -3.719125 1.293625 -0.2456875 0.0008125 -0.4911875 -0.0139375 -0.735 -0.044125 1.3776875 0.8895 2.98325 1.3617499999999998 4.623125 1.35975 1.1316875 0.0118125 2.254375 -0.202125 3.3024375 -0.6291249999999999 1.048125 -0.42700000000000005 2.000625 -1.0585625 2.8019375 -1.85775 0.80125 -0.7991874999999999 1.4352500000000001 -1.7500625 1.8649375000000001 -2.7970625 0.4296875 -1.0470625 0.646375 -2.1691875 0.6375625 -3.3008749999999996v-0.3895625c0.57675 -0.4300625 1.0741874999999999 -0.9573750000000001 1.47 -1.5581875Z" fill="#3b5d50" stroke-width="1"></path></svg>